<?xml version="1.0" encoding="UTF-8"?>
<svg fill="none" version="1.1" viewBox="0 0 40 40" xmlns="http://www.w3.org/2000/svg"><path d="m36.1218 9h-18.2872l-2.0741-2.59265c-.3513-.43914-.7969-.79364-1.3038-1.03725s-1.062-.3701-1.6244-.3701h-8.5623c-.59674 0-1.16903.23705-1.59099.65901s-.65901.99425-.65901 1.59099v3.4296c-.01026.0658-.01694.1321-.02.1986v20.2435c-1e-5.4981.19788.9759.55011 1.3281.35224.3523.82997.5502 1.32812.5502h32.24357c.4981 0 .9759-.1979 1.3281-.5502.3522-.3522.5501-.83.5501-1.3281v-20.2435c0-.4981-.1979-.97583-.5501-1.32807-.3523-.35223-.83-.55012-1.3281-.55013z" fill="url(#a)"/><mask id="d" x="2" y="5" width="36" height="28" mask-type="alpha" maskUnits="userSpaceOnUse"><path d="m36.1218 9h-18.2872l-2.0741-2.59265c-.3513-.43914-.7969-.79364-1.3038-1.03725s-1.062-.3701-1.6244-.3701h-8.5623c-.59674 0-1.16903.23705-1.59099.65901s-.65901.99425-.65901 1.59099v3.4296c-.01026.0658-.01694.1321-.02.1986v20.2435c-1e-5.4981.19788.9759.55011 1.3281.35224.3523.82997.5502 1.32812.5502h32.24357c.4981 0 .9759-.1979 1.3281-.5502.3522-.3522.5501-.83.5501-1.3281v-20.2435c0-.4981-.1979-.97583-.5501-1.32807-.3523-.35223-.83-.55012-1.3281-.55013z" fill="url(#a)"/></mask><g mask="url(#d)"><g filter="url(#e)"><rect x="2" y="12" width="36" height="12" rx="2.1" fill="#C4C4C4"/></g></g><path d="m18.4554 10c-.4992 0-.9803.1867-1.3489.5233l-.558.5098c-.869.6326-1.9166.9729-2.9916.9716h-9.67537c-.49901 0-.97759.1983-1.33044.5511-.35286.3529-.55109.8314-.55109 1.3305v16.2804c.00647.4926.20832.9625.56116 1.3062.35284.3438.82777.5334 1.32037.5271h32.23697c.4926.0063.9675-.1833 1.3203-.5271.3529-.3437.5547-.8136.5612-1.3062v-18.3333c-.0065-.4926-.2083-.9625-.5612-1.3063-.3528-.3438-.8277-.53338-1.3203-.5271h-17.6631z" fill="url(#c)"/><path d="m36.1234 9.99999h-17.666c-.5004 0-.9826.18751-1.3514.52561l-.5536.5074c-.8855.6332-1.9471.973-3.0357.9717h-9.6417c-.24623 0-.49005.0485-.71753.1427-.22749.0942-.43419.2324-.6083.4065s-.31222.3808-.40644.6083c-.09423.2274-.14273.4713-.14273.7175v1c0-.4973.19754-.9742.54917-1.3258.35164-.3517.82855-.5492 1.32583-.5492h9.6417c1.1881.0024 2.3522-.3347 3.3551-.9717l.5536-.5074c.3688-.3381.851-.5256 1.3514-.5256h17.3466c.4918-.0055.9655.1846 1.3172.5284.3516.3438.5522.8132.5578 1.3049v-1c-.0056-.4917-.2062-.9611-.5578-1.3049-.3517-.3438-.8254-.53387-1.3172-.52841z" fill="url(#b)" opacity=".3"/><defs><filter id="e" x="-.5" y="9.5" width="41" height="17" color-interpolation-filters="sRGB" filterUnits="userSpaceOnUse"><feFlood flood-opacity="0" result="BackgroundImageFix"/><feColorMatrix in="SourceAlpha" values="0 0 0 0 0 0 0 0 0 0 0 0 0 0 0 0 0 0 127 0"/><feOffset/><feGaussianBlur stdDeviation="0.416667"/><feColorMatrix values="0 0 0 0 0 0 0 0 0 0 0 0 0 0 0 0 0 0 0.1 0"/><feBlend in2="BackgroundImageFix" result="effect1_dropShadow"/><feColorMatrix in="SourceAlpha" values="0 0 0 0 0 0 0 0 0 0 0 0 0 0 0 0 0 0 127 0"/><feOffset/><feGaussianBlur stdDeviation="1.25"/><feColorMatrix values="0 0 0 0 0 0 0 0 0 0 0 0 0 0 0 0 0 0 0.2 0"/><feBlend in2="effect1_dropShadow" result="effect2_dropShadow"/><feBlend in="SourceGraphic" in2="effect2_dropShadow" result="shape"/></filter><linearGradient id="a" x1="29.3526" x2="8.98839" y1="37.1991" y2="1.92733" gradientUnits="userSpaceOnUse"><stop stop-color="#DFA32D" offset="0"/><stop stop-color="#FFBF17" offset="1"/></linearGradient><linearGradient id="c" x1="28.9218" x2="11.9487" y1="36.453" y2="7.05481" gradientUnits="userSpaceOnUse"><stop stop-color="#FFC936" offset="0"/><stop stop-color="#FFD96F" offset=".5"/><stop stop-color="#FFE7A0" offset="1"/></linearGradient><linearGradient id="b" x1="2" x2="37.9984" y1="12.4398" y2="12.4398" gradientUnits="userSpaceOnUse"><stop stop-color="#fff" offset="0"/><stop stop-color="#fff" stop-opacity="0" offset="1"/></linearGradient></defs></svg>
